<?xml version="1.0" encoding="utf-8"?>
<!-- Svg Vector Icons : http://www.onlinewebfonts.com/icon -->
<!DOCTYPE svg PUBLIC "-//W3C//DTD SVG 1.1//EN" "http://www.w3.org/Graphics/SVG/1.1/DTD/svg11.dtd">
<svg version="1.1" xmlns="http://www.w3.org/2000/svg" xmlns:xlink="http://www.w3.org/1999/xlink" x="0px" y="0px" viewBox="0 0 1000 1000" enable-background="new 0 0 1000 1000" xml:space="preserve">
<metadata> Svg Vector Icons : http://www.onlinewebfonts.com/icon </metadata>
<g><path d="M990,497.5l-5.2-8.8c-1.9-3.2-47.4-79.5-130.9-156.7c-49.2-45.5-101.3-81.8-155-107.9c-67.6-32.8-137.7-49.5-208.5-49.5c-70.9,0-140.1,16.8-205.7,50C232.4,251,182.4,287.7,136,333.7C57.2,411.8,16.3,488.8,14.6,492.1l-4.6,8.8l5.6,8.2c2.2,3.2,54.6,79.8,140.7,157.5C207,712.4,258.8,749,310.4,775.3c65.2,33.3,130.1,50.1,192.9,50.1c62.9,0,127.4-17,191.9-50.6c51-26.5,102.1-63.5,151.9-109.7c84.4-78.4,135.2-155.7,137.3-159L990,497.5z M824.6,640.9C750.3,710,634.2,792.4,503.2,792.4c-130.8,0-248.6-81.5-324.3-149.8C111.6,581.9,64.6,520.5,48.7,498.7c12.9-22.1,50.7-82.5,111.1-142.2c100-98.8,211.2-148.9,330.5-148.9c148.9,0,267.3,80.5,340.4,148c64.1,59.2,105.7,119.1,120,141.1C935.3,518.8,890,580.1,824.6,640.9z"/><path d="M373.2,500c0,70,56.7,126.7,126.7,126.7S626.6,570,626.6,500c0-70-56.7-126.7-126.7-126.7S373.2,430,373.2,500z"/></g>
</svg>