<svg xmlns="http://www.w3.org/2000/svg" xmlns:xlink="http://www.w3.org/1999/xlink" preserveAspectRatio="xMidYMid" width="677" height="437" viewBox="0 0 677 437">
  <defs>
    <style>
      .cls-1 {
        opacity: 0.81;
      }

      .cls-2 {
        fill: url(#linear-gradient-1);
        opacity: 0.3;
      }

      .cls-2, .cls-3 {
        fill-rule: evenodd;
      }

      .cls-3 {
        fill: #deeaf4;
        opacity: 0.07;
      }
    </style>

    <linearGradient id="linear-gradient-1" gradientUnits="userSpaceOnUse" x1="482.744" y1="-0.093" x2="194.662" y2="437.719">
      <stop offset="NaN" stop-color="#fff"/>
      <stop offset="Infinity" stop-color="#707d87"/>
    </linearGradient>
  </defs>
  <g class="cls-1">
    <path d="M429.252,138.056 C428.357,138.844 427.460,139.599 426.562,140.324 C584.878,240.991 707.967,373.414 671.249,432.174 C652.044,462.908 570.644,355.971 507.973,344.292 C465.748,336.423 390.223,322.669 318.211,301.144 C312.133,317.957 308.988,338.517 306.682,359.102 C287.362,349.368 275.223,316.261 266.970,284.075 C256.297,280.095 245.911,275.924 235.990,271.533 C193.620,252.778 118.442,204.382 63.633,152.438 C52.837,142.206 140.493,182.398 191.176,154.730 C129.070,162.386 36.109,115.469 29.679,103.529 C1.839,51.837 -6.647,17.295 4.221,-0.097 C76.540,15.617 202.812,28.913 336.252,90.811 C366.003,73.394 433.638,27.091 467.441,39.567 C438.850,72.916 412.890,108.945 429.252,138.056 Z" class="cls-2"/>
    <path d="M338.051,171.794 C392.447,181.386 444.867,185.687 492.656,185.687 C479.010,176.130 446.840,154.979 428.000,140.000 C413.290,100.418 440.772,70.934 467.000,39.000 C432.552,31.056 391.299,58.506 336.000,91.000 C209.885,40.144 195.372,35.057 3.853,1.189 C30.826,69.982 166.465,141.539 338.051,171.794 Z" class="cls-3"/>
  </g>
</svg>
