<svg xmlns="http://www.w3.org/2000/svg" xmlns:xlink="http://www.w3.org/1999/xlink" preserveAspectRatio="xMidYMid" width="1080" height="1119" viewBox="0 0 1080 1119">
  <defs>
    <style>
      .cls-1 {
        fill: url(#linear-gradient-1);
      }

      .cls-1, .cls-2, .cls-3, .cls-4, .cls-5, .cls-6, .cls-7, .cls-8, .cls-9 {
        fill-rule: evenodd;
      }

      .cls-2 {
        fill: url(#linear-gradient-2);
      }

      .cls-3 {
        fill: url(#linear-gradient-3);
      }

      .cls-3, .cls-5, .cls-9 {
        opacity: 0.6;
        mix-blend-mode: multiply;
      }

      .cls-4 {
        fill: #b0beca;
      }

      .cls-5 {
        fill: url(#linear-gradient-4);
      }

      .cls-6 {
        fill: #a0b3ce;
      }

      .cls-7 {
        fill: url(#linear-gradient-5);
      }

      .cls-8 {
        fill: url(#linear-gradient-6);
      }

      .cls-9 {
        fill: url(#linear-gradient-7);
      }
    </style>

    <linearGradient id="linear-gradient-1" gradientUnits="userSpaceOnUse" x1="621.622" y1="76.625" x2="6.504" y2="888.219">
      <stop offset="NaN" stop-color="#fdfeff"/>
      <stop offset="Infinity" stop-color="#ced6dc"/>
    </linearGradient>
    <linearGradient id="linear-gradient-2" gradientUnits="userSpaceOnUse" x1="606.764" y1="1119.31" x2="598.61" y2="395.094">
      <stop offset="NaN" stop-color="#abb9c5"/>
      <stop offset="Infinity" stop-color="#eff1f3"/>
    </linearGradient>
    <linearGradient id="linear-gradient-3" gradientUnits="userSpaceOnUse" x1="885.778" y1="912.344" x2="900.286" y2="526.438">
      <stop offset="NaN" stop-color="#dfe6ec"/>
      <stop offset="Infinity" stop-color="#bcc9d4"/>
    </linearGradient>
    <linearGradient id="linear-gradient-4" x1="165.095" y1="394.75" x2="171.187" y2="232.72" xlink:href="#linear-gradient-3"/>
    <linearGradient id="linear-gradient-5" gradientUnits="userSpaceOnUse" x1="441.78" y1="43.344" x2="308.064" y2="116.5">
      <stop offset="NaN" stop-color="#ffbaba"/>
      <stop offset="Infinity" stop-color="#ff8ea7"/>
    </linearGradient>
    <linearGradient id="linear-gradient-6" x1="457.29" y1="657.938" x2="671.368" y2="319.782" xlink:href="#linear-gradient-2"/>
    <linearGradient id="linear-gradient-7" x1="568.078" y1="588.969" x2="576.358" y2="368.719" xlink:href="#linear-gradient-3"/>
  </defs>
  <g>
    <path d="M166.625,76.626 L352.071,289.957 C356.529,295.086 360.524,304.710 361.007,311.488 L361.007,311.488 C362.685,335.013 376.548,368.415 392.021,386.214 L628.225,657.936 L628.225,657.936 L363.322,888.213 L363.322,888.213 L73.634,554.965 C-35.206,429.759 -21.977,240.575 103.229,131.735 L166.625,76.626 L166.625,76.626 Z" class="cls-1"/>
    <path d="M399.745,395.100 L627.424,657.015 L627.424,657.015 L825.800,484.569 C849.589,463.890 885.534,466.403 906.214,490.192 L1070.525,679.210 L1070.525,679.210 L564.227,1119.328 L564.227,1119.328 L134.842,625.376 L134.842,625.376 L399.745,395.100 L399.745,395.100 Z" class="cls-2"/>
    <path d="M883.539,534.689 L1074.619,754.502 C1083.326,764.519 1082.268,779.653 1072.251,788.361 L936.404,906.451 C926.387,915.158 911.252,914.100 902.545,904.084 L711.465,684.271 C702.758,674.254 703.816,659.120 713.832,650.412 L849.680,532.322 C859.697,523.614 874.831,524.673 883.539,534.689 Z" class="cls-3"/>
    <path d="M377.215,474.355 C382.654,480.612 392.131,481.279 398.384,475.844 C404.636,470.409 405.295,460.930 399.856,454.674 C394.417,448.417 384.939,447.750 378.687,453.185 C372.435,458.620 371.776,468.098 377.215,474.355 Z" class="cls-4"/>
    <path d="M331.932,513.719 C337.371,519.976 346.849,520.642 353.101,515.207 C359.353,509.772 360.012,500.294 354.573,494.037 C349.134,487.780 339.657,487.114 333.404,492.549 C327.152,497.984 326.493,507.462 331.932,513.719 Z" class="cls-4"/>
    <path d="M286.650,553.082 C292.089,559.339 301.566,560.006 307.818,554.571 C314.071,549.136 314.730,539.658 309.291,533.401 C303.852,527.144 294.374,526.477 288.122,531.912 C281.870,537.347 281.210,546.825 286.650,553.082 Z" class="cls-4"/>
    <path d="M241.367,592.446 C246.806,598.703 256.284,599.369 262.536,593.934 C268.788,588.499 269.447,579.021 264.008,572.764 C258.569,566.507 249.092,565.841 242.839,571.276 C236.587,576.711 235.928,586.189 241.367,592.446 Z" class="cls-4"/>
    <path d="M196.084,631.809 C201.523,638.066 211.001,638.733 217.253,633.298 C223.505,627.863 224.165,618.385 218.726,612.128 C213.287,605.871 203.809,605.204 197.557,610.639 C191.304,616.074 190.645,625.552 196.084,631.809 Z" class="cls-4"/>
    <path d="M107.009,366.878 C136.380,400.665 187.559,404.263 221.321,374.914 C255.083,345.566 258.643,294.384 229.272,260.596 C199.901,226.809 148.722,223.211 114.960,252.560 C81.198,281.908 77.638,333.090 107.009,366.878 Z" class="cls-5"/>
    <path d="M401.728,-0.449 L409.606,8.614 L237.533,158.196 L229.654,149.132 L401.728,-0.449 Z" class="cls-6"/>
    <path d="M401.728,-0.449 L410.163,9.529 L411.498,108.166 L373.318,101.079 L342.100,160.272 L338.332,54.660 L401.728,-0.449 Z" class="cls-7"/>
    <path d="M596.927,342.994 L766.337,537.878 L766.337,537.878 L628.225,657.936 L628.225,657.936 L362.321,352.049 L362.321,352.049 L532.986,320.623 C554.196,316.717 582.778,326.717 596.927,342.994 Z" class="cls-8"/>
    <path d="M565.885,375.875 L691.077,519.892 C695.431,524.901 694.902,532.468 689.893,536.822 L633.290,586.026 C628.282,590.380 620.715,589.851 616.361,584.842 L452.808,396.697 C448.455,391.688 450.211,386.669 456.737,385.467 L546.210,368.991 C552.736,367.790 561.531,370.867 565.885,375.875 Z" class="cls-9"/>
  </g>
</svg>
